<svg width="1280" height="720" xmlns="http://www.w3.org/2000/svg" xmlns:xlink="http://www.w3.org/1999/xlink" overflow="hidden"><defs><filter id="fx0" x="-10%" y="-10%" width="120%" height="120%" filterUnits="userSpaceOnUse" primitiveUnits="userSpaceOnUse"><feComponentTransfer color-interpolation-filters="sRGB"><feFuncR type="discrete" tableValues="0 0"/><feFuncG type="discrete" tableValues="0 0"/><feFuncB type="discrete" tableValues="0 0"/><feFuncA type="linear" slope="0.4" intercept="0"/></feComponentTransfer><feGaussianBlur stdDeviation="1.77778 1.77778"/></filter><clipPath id="clip1"><rect x="0" y="0" width="1280" height="720"/></clipPath><clipPath id="clip2"><rect x="137" y="102" width="900" height="161"/></clipPath><clipPath id="clip3"><rect x="0" y="0" width="1175" height="434"/></clipPath></defs><g clip-path="url(#clip1)"><rect x="0" y="0" width="1280" height="720" fill="#FFFFFF"/><g clip-path="url(#clip2)" filter="url(#fx0)" transform="translate(43 175)"><g clip-path="url(#clip3)"><path d="M123.2-138.8 123.2 0 105 0 105-67.2 36.4-67.2 36.4 0 18.4 0 18.4-138.8 36.4-138.8 36.4-82.2 105-82.2 105-138.8ZM211.667 2C194.2 2 181.133-1.56667 172.467-8.7 163.8-15.8333 159.467-27.8667 159.467-44.8L159.467-138.8 177.267-138.8 177.267-48.8C177.267-42.1333 177.867-36.5667 179.067-32.1 180.267-27.6333 182.233-24.0667 184.967-21.4 187.7-18.7333 191.267-16.8 195.667-15.6 200.067-14.4 205.467-13.8 211.867-13.8 218.533-13.8 224.1-14.4 228.567-15.6 233.033-16.8 236.6-18.7333 239.267-21.4 241.933-24.0667 243.8-27.6333 244.867-32.1 245.933-36.5667 246.467-42.1333 246.467-48.8L246.467-138.8 264.267-138.8 264.267-44.8C264.267-28.4 259.867-16.5 251.067-9.1 242.267-1.7 229.133 2 211.667 2ZM334.433 2C330.167 2 325.933 1.83333 321.733 1.5 317.533 1.16667 313.6 0.733333 309.933 0.2 306.267-0.333333 303-0.9 300.133-1.5 297.267-2.1 294.967-2.73333 293.233-3.4L293.233-20C295.233-19.2 297.767-18.4333 300.833-17.7 303.9-16.9667 307.233-16.3 310.833-15.7 314.433-15.1 318.233-14.6333 322.233-14.3 326.233-13.9667 330.3-13.8 334.433-13.8 344.833-13.8 352.7-15.5333 358.033-19 363.367-22.4667 366.033-28.5333 366.033-37.2 366.033-41.4667 365.6-45.0333 364.733-47.9 363.867-50.7667 362.233-53.2 359.833-55.2 357.433-57.2 354.167-58.9333 350.033-60.4 345.9-61.8667 340.567-63.4 334.033-65 326.967-66.7333 320.967-68.5333 316.033-70.4 311.1-72.2667 307.1-74.6333 304.033-77.5 300.967-80.3667 298.733-83.8667 297.333-88 295.933-92.1333 295.233-97.2667 295.233-103.4 295.233-116.067 299-125.5 306.533-131.7 314.067-137.9 325.7-141 341.433-141 344.767-141 348.133-140.867 351.533-140.6 354.933-140.333 358.2-139.967 361.333-139.5 364.467-139.033 367.333-138.5 369.933-137.9 372.533-137.3 374.633-136.667 376.233-136L376.233-119.6C372.233-121.067 367.033-122.367 360.633-123.5 354.233-124.633 347.9-125.2 341.633-125.2 336.833-125.2 332.633-124.9 329.033-124.3 325.433-123.7 322.433-122.6 320.033-121 317.633-119.4 315.867-117.2 314.733-114.4 313.6-111.6 313.033-107.933 313.033-103.4 313.033-100.2 313.333-97.4333 313.933-95.1 314.533-92.7667 315.833-90.7333 317.833-89 319.833-87.2667 322.7-85.7 326.433-84.3 330.167-82.9 335.167-81.4667 341.433-80 349.167-78.1333 355.733-76.1667 361.133-74.1 366.533-72.0333 370.9-69.4 374.233-66.2 377.567-63 379.967-59.1 381.433-54.5 382.9-49.9 383.633-44.2 383.633-37.4 383.633-23.8 379.467-13.8333 371.133-7.5 362.8-1.16667 350.567 2 334.433 2ZM497.2-122.8 456.8-122.8 456.8 0 438.8 0 438.8-122.8 398.2-122.8 398.2-138.8 497.2-138.8Z" transform="translate(127.314 251)"/><path d="M14.4-68.6 73.4-68.6 73.4-54.2 14.4-54.2Z" transform="translate(627.98 251)"/><path d="M18.4-138.8 47.2-138.8 82.6-49.4 83.8-49.4 119.2-138.8 147.6-138.8 147.6 0 129.6 0 129.6-120.6 128.4-120.6 92.8-31.4 73.2-31.4 37.2-120.6 36-120.6 36 0 18.4 0Z" transform="translate(715.98 251)"/><path d="M18.4-138.8 47.2-138.8 82.6-49.4 83.8-49.4 119.2-138.8 147.6-138.8 147.6 0 129.6 0 129.6-120.6 128.4-120.6 92.8-31.4 73.2-31.4 37.2-120.6 36-120.6 36 0 18.4 0Z" transform="translate(881.98 251)"/></g></g><text font-family="Alibaba PuHuiTi,Alibaba PuHuiTi_MSFontService,sans-serif" font-weight="400" font-size="200" transform="translate(173.142 423)">HUST-MM</text></g></svg>